# xmcd
#
# Track frame offsets: 
#        150
#        21840
#        42638
#        89573
#        104365
#        124128
#        171513
#        202303
#        222163
#
# Disc length: 3337 seconds
#
# Revision: 1
# Processed by: cddbd v1.5.2PL0 Copyright (c) Steve Scherf et al.
# Submitted via: ExactAudioCopy v0.95b4
#
DISCID=8c0d0709
DTITLE=Stevie Ray Vaughan - Texas Flood [7-22-80]
DYEAR=1980
DGENRE=Blues
TTITLE0=Hideaway
TTITLE1=Tell Me Darlin'
TTITLE2=Tin Pan Alley
TTITLE3=Lovestruck
TTITLE4=Another Day
TTITLE5=Texas Flood
TTITLE6=Witching Hour
TTITLE7=Little Wing
TTITLE8=Instrumental
EXTD=YEAR: 1980
EXTT0=
EXTT1=
EXTT2=
EXTT3=
EXTT4=
EXTT5=
EXTT6=
EXTT7=
EXTT8=
PLAYORDER=
